# xmcd CD database file
#
# Track frame offsets:
#	150
#	22735
#	44582
#	61792
#	82440
#	101127
#	125675
#	146552
#	170100
#	193092
#	212117
#
# Disc length: 3116 seconds
#
# Revision: 1
# Processed by: cddbd v1.5.1PL0 Copyright (c) Steve Scherf et al.
# Submitted via: CDex 1.50beta8
#
DISCID=a80c2a0b
DTITLE=藤井フミヤ - ソラモヨウ
DYEAR=1900
DGENRE=JPop
TTITLE0=三日月
TTITLE1=わらの犬
TTITLE2=WHITE BABE
TTITLE3=恋人は地球人
TTITLE4=映画みたいに
TTITLE5=透明なバタフライ
TTITLE6=青春の道
TTITLE7=ロリータ
TTITLE8=何もない部屋
TTITLE9=氷の箱
TTITLE10=BIRD
EXTD=
EXTT0=
EXTT1=
EXTT2=
EXTT3=
EXTT4=
EXTT5=
EXTT6=
EXTT7=
EXTT8=
EXTT9=
EXTT10=
PLAYORDER=
